# xmcd
#
# Track frame offsets:
#	182
#	13135
#	23927
#	35467
#	47500
#	62862
#	74685
#	85105
#	98302
#	108560
#
# Disc length: 1576 seconds
# Revision: 0
# Processed by: cddbd v1.5.2PL0 Copyright (c) Steve Scherf et al.
# Submitted via: dBpowerAMP V12.0
#
DISCID=7d06260a
DTITLE=Doug Kershaw - Country Classics
DYEAR=2003
DGENRE=Cajun
TTITLE0=Natural Man
TTITLE1=Diggy Diggy Lo
TTITLE2=Sweet Jole Blon'
TTITLE3=Louisiana Man
TTITLE4=Mon Chapeau (My Hat)
TTITLE5=Fais Do Do
TTITLE6=Mamou Two-Steps
TTITLE7=(Had It Not Been For) My Sally Jo
TTITLE8=Son of a Louisiana Man
TTITLE9=Mama's Got the Know-How
EXTD=
EXTT0=
EXTT1=
EXTT2=
EXTT3=
EXTT4=
EXTT5=
EXTT6=
EXTT7=
EXTT8=
EXTT9=
PLAYORDER=
